<?xml version="1.0" standalone="no"?>
<!DOCTYPE svg PUBLIC "-//W3C//DTD SVG 20010904//EN"
 "http://www.w3.org/TR/2001/REC-SVG-20010904/DTD/svg10.dtd">
<svg version="1.0" xmlns="http://www.w3.org/2000/svg"
 width="134.000000pt" height="134.000000pt" viewBox="0 0 134.000000 134.000000"
 preserveAspectRatio="xMidYMid meet">
<metadata>
Created by potrace 1.11, written by Peter Selinger 2001-2013
</metadata>
<g transform="translate(0.000000,134.000000) scale(0.100000,-0.100000)"
fill="#000000" stroke="none">
<path d="M339 1039 c-129 -19 -222 -127 -203 -237 14 -83 66 -131 204 -187
121 -48 133 -56 142 -93 21 -81 -143 -99 -249 -28 l-36 25 -43 -52 c-24 -28
-44 -54 -44 -58 0 -4 12 -16 27 -26 221 -146 512 -64 513 145 0 97 -44 145
-196 211 -60 26 -119 52 -130 59 -32 17 -36 49 -10 79 20 23 31 27 80 26 40 0
70 -7 105 -26 l49 -25 41 48 40 47 -22 21 c-63 58 -168 85 -268 71z"/>
<path d="M770 675 l0 -355 66 0 67 0 -6 208 c-3 114 -8 236 -10 272 l-5 65 15
-50 c28 -100 74 -251 85 -278 9 -24 15 -28 46 -25 l36 3 32 105 c18 58 41 134
53 170 l20 65 -5 -70 c-3 -38 -7 -159 -9 -267 l-4 -198 64 0 c41 0 64 4 67 13
2 6 3 165 3 352 l-1 340 -81 3 -80 3 -13 -48 c-7 -26 -14 -52 -16 -58 -2 -5
-15 -55 -29 -110 -14 -55 -28 -107 -31 -115 -5 -12 -33 78 -92 295 -8 30 -9
30 -90 33 l-82 3 0 -356z"/>
</g>
</svg>
